<svg width="208" height="37" viewBox="0 0 208 37" fill="none" xmlns="http://www.w3.org/2000/svg">
<path fill-rule="evenodd" clip-rule="evenodd" d="M36 15.999C36 9.039 32.058 3.005 26.291 0V12.033H9.709V0C3.941 3.005 0 9.04 0 15.999C0 22.96 3.94 28.996 9.709 32V19.967H26.291V32C32.058 28.996 36 22.96 36 15.999ZM42 1H50.859V11.13H59.139V1H68V30H59.138V18.57H50.86V30H42V1ZM91.015 16.185C91.015 12.153 91.095 8 80.93 8C75.888 8 70.23 8.968 69.985 14.855H77.527C77.57 13.942 78.061 12.682 80.562 12.682C81.872 12.682 83.225 13.209 83.225 14.632C83.225 15.972 82.118 16.297 81.012 16.501C76.87 17.273 69 17.029 69 23.689C69 28.076 72.402 30 76.504 30C79.126 30 81.624 29.436 83.346 27.515H83.43C83.387 28.037 83.512 28.885 83.716 29.449H92C91.095 28.116 91.015 26.34 91.015 24.768V16.185V16.185ZM83.225 21.987C83.102 24.164 81.669 25.253 79.822 25.253C78.349 25.253 77.282 24.283 77.282 23.317C77.282 21.906 78.226 21.463 80.028 21.061C81.134 20.82 82.241 20.536 83.225 20.054V21.987V21.987ZM106.909 16.48C106.824 15.632 106.533 14.947 105.989 14.515C105.489 14.072 104.781 13.831 103.905 13.831C100.736 13.831 100.275 16.487 100.275 19.022C100.275 21.557 100.736 24.169 103.905 24.169C105.697 24.169 106.949 22.76 107.116 21.114H115C114.206 26.807 109.578 30 103.738 30C97.224 30 92 25.638 92 19.017C92 12.402 97.224 8 103.738 8C109.409 8 114.249 10.706 114.749 16.48H106.909V16.48ZM115 1H123.246V15.016L128.484 8.936H137.794L130.104 16.881L139 30H129.107L124.701 22.351L123.246 23.896V30H115V1ZM139 8.552H146.794V11.268H146.874C148.376 9.118 150.529 8 153.737 8C157.53 8 161 10.358 161 15.286V30H152.92V18.756C152.92 16.278 152.635 14.541 150.284 14.541C148.904 14.541 147.078 15.243 147.078 18.675V30H139V8.552ZM185 20.765C185 12.609 181.403 8 173.076 8C166.446 8 162 12.93 162 19.034C162 26.062 167.055 30 173.763 30C178.532 30 182.939 27.91 184.557 23.412H177.077C176.437 24.413 175.02 24.906 173.727 24.906C171.219 24.906 169.845 23.181 169.641 20.765H185ZM169.685 16.622C170.046 14.349 171.42 13.091 173.802 13.091C175.865 13.091 177.318 14.673 177.318 16.622H169.685V16.622ZM200.955 28.522C200.299 30.396 199.563 32.799 198.293 34.392C196.164 37.041 192.888 37 189.733 37H186.048V30.558H187.93C188.75 30.558 189.814 30.641 190.39 30.355C190.88 30.112 191.166 29.703 191.166 28.767C191.166 27.747 188.054 19.964 187.604 18.741L184 9H192.681L196.082 21.145H196.164L199.604 9H208L200.955 28.522Z" fill="#016950"/>
</svg>
